<svg width="21" height="20" viewBox="0 0 21 20" fill="none" xmlns="http://www.w3.org/2000/svg">
<path d="M1 1.15088L3.08 1.5067L4.04301 12.8466C4.12001 13.7727 4.90301 14.4833 5.84301 14.4804H16.752C17.649 14.4823 18.41 13.83 18.537 12.9523L19.486 6.47042C19.592 5.74593 19.083 5.07382 18.351 4.96905C18.287 4.96015 3.414 4.95521 3.414 4.95521" stroke="#363853" stroke-width="1.5" stroke-linecap="round" stroke-linejoin="round"/>
<path d="M11.375 8.42261H14.1479" stroke="#363853" stroke-width="1.5" stroke-linecap="round" stroke-linejoin="round"/>
<path fill-rule="evenodd" clip-rule="evenodd" d="M4.4043 17.7209C4.70527 17.7209 4.94824 17.9622 4.94824 18.2589C4.94824 18.5566 4.70527 18.7979 4.4043 18.7979C4.10333 18.7979 3.86035 18.5566 3.86035 18.2589C3.86035 17.9622 4.10333 17.7209 4.4043 17.7209Z" fill="#363853" stroke="#363853" stroke-width="1.5" stroke-linecap="round" stroke-linejoin="round"/>
<path fill-rule="evenodd" clip-rule="evenodd" d="M15.6846 17.7209C15.9856 17.7209 16.2296 17.9622 16.2296 18.2589C16.2296 18.5566 15.9856 18.7979 15.6846 18.7979C15.3836 18.7979 15.1406 18.5566 15.1406 18.2589C15.1406 17.9622 15.3836 17.7209 15.6846 17.7209Z" fill="#363853" stroke="#363853" stroke-width="1.5" stroke-linecap="round" stroke-linejoin="round"/>
</svg>
