<svg width="23" height="18" viewBox="0 0 23 18" fill="none" xmlns="http://www.w3.org/2000/svg">
<path d="M18.6 1.64C18.0667 0.946664 17.5333 0.57333 17 0.519998C16.4133 0.413332 15.9333 0.519999 15.56 0.839998C15.1333 1.10666 14.8933 1.53333 14.84 2.12C14.7867 2.70666 15.0267 3.34666 15.56 4.04C16.4133 5.16 17.0267 6.30666 17.4 7.48C17.72 8.6 17.88 9.64 17.88 10.6L18.12 9C16.7333 9 15.6133 9.4 14.76 10.2C13.9067 10.9467 13.48 11.9867 13.48 13.32C13.48 14.6 13.88 15.6667 14.68 16.52C15.48 17.32 16.52 17.72 17.8 17.72C19.1867 17.72 20.28 17.2667 21.08 16.36C21.8267 15.4 22.2 14.04 22.2 12.28C22.2 11.16 22.12 10.0133 21.96 8.84C21.7467 7.61333 21.3733 6.38667 20.84 5.16C20.2533 3.93333 19.5067 2.76 18.6 1.64ZM5.32 1.64C4.78666 0.946664 4.25333 0.57333 3.72 0.519998C3.13333 0.413332 2.65333 0.519999 2.28 0.839998C1.85333 1.10666 1.61333 1.53333 1.56 2.12C1.50667 2.70666 1.74667 3.34666 2.28 4.04C3.13333 5.16 3.74667 6.30666 4.12 7.48C4.44 8.6 4.6 9.64 4.6 10.6L4.84 9C3.45333 9 2.33333 9.4 1.48 10.2C0.626666 10.9467 0.199999 11.9867 0.199999 13.32C0.199999 14.6 0.599999 15.6667 1.4 16.52C2.2 17.32 3.24 17.72 4.52 17.72C5.90666 17.72 7 17.2667 7.8 16.36C8.54667 15.4 8.92 14.04 8.92 12.28C8.92 11.16 8.84 10.0133 8.68 8.84C8.46667 7.61333 8.09333 6.38667 7.56 5.16C6.97333 3.93333 6.22667 2.76 5.32 1.64Z" fill="#DDDDDD"/>
</svg>
